<?xml version="1.0" standalone="no"?><!DOCTYPE svg PUBLIC "-//W3C//DTD SVG 1.1//EN" "http://www.w3.org/Graphics/SVG/1.1/DTD/svg11.dtd"><svg t="1651290328061" class="icon" viewBox="0 0 1024 1024" version="1.1" xmlns="http://www.w3.org/2000/svg" p-id="2687" xmlns:xlink="http://www.w3.org/1999/xlink" width="200" height="200"><defs><style type="text/css">@font-face { font-family: feedback-iconfont; src: url("//at.alicdn.com/t/font_1031158_u69w8yhxdu.woff2?t=1630033759944") format("woff2"), url("//at.alicdn.com/t/font_1031158_u69w8yhxdu.woff?t=1630033759944") format("woff"), url("//at.alicdn.com/t/font_1031158_u69w8yhxdu.ttf?t=1630033759944") format("truetype"); }
</style></defs><path d="M136 212h752v320H136V212z m-40-72c-17.673 0-32 14.327-32 32v400c0 17.673 14.327 32 32 32h832c17.673 0 32-14.327 32-32V172c0-17.673-14.327-32-32-32H96zM128 648a8 8 0 0 1 8-8h56a8 8 0 0 1 8 8v192h624V648a8 8 0 0 1 8-8h56a8 8 0 0 1 8 8v232c0 17.673-14.327 32-32 32H160c-17.673 0-32-14.327-32-32V648z" p-id="2688" fill="#333333"></path><path d="M551.343 319.628a8 8 0 0 0 0 11.314l117.936 117.936c9.856 9.856 25.23 10.828 36.175 2.918a27.952 27.952 0 0 0 6.629-4.919l117.936-117.936a7.998 7.998 0 0 0 0-11.313l-28.284-28.285a8 8 0 0 0-11.314 0l-100.74 100.741-98.74-98.74a8 8 0 0 0-11.314 0l-28.284 28.284z" p-id="2689" fill="#333333"></path></svg>