<?xml version="1.0" standalone="no"?><!DOCTYPE svg PUBLIC "-//W3C//DTD SVG 1.1//EN" "http://www.w3.org/Graphics/SVG/1.1/DTD/svg11.dtd"><svg t="1651330397650" class="icon" viewBox="0 0 1024 1024" version="1.1" xmlns="http://www.w3.org/2000/svg" p-id="1444" xmlns:xlink="http://www.w3.org/1999/xlink" width="200" height="200"><defs><style type="text/css">@font-face { font-family: feedback-iconfont; src: url("//at.alicdn.com/t/font_1031158_u69w8yhxdu.woff2?t=1630033759944") format("woff2"), url("//at.alicdn.com/t/font_1031158_u69w8yhxdu.woff?t=1630033759944") format("woff"), url("//at.alicdn.com/t/font_1031158_u69w8yhxdu.ttf?t=1630033759944") format("truetype"); }
</style></defs><path d="M85.333333 256c-25.6 0-42.666667-17.066667-42.666666-42.666667s17.066667-42.666667 42.666666-42.666666l341.333334 1e-8c25.6 0 42.666667 17.066667 42.66666599 42.66666599s-17.066667 42.666667-42.66666599 42.666667l-341.333334 0zM652.8 797.866667c-17.066667-17.066667-17.066667-38.4-4.266667-55.466667l4.266667-4.266667L878.933333 512l-226.133333-226.133333c-17.066667-17.066667-17.066667-38.4-4.266667-55.466667l4.266667-4.266667c17.066667-17.066667 38.4-17.066667 55.466667-4.266666l4.266666 4.266666 256 256c17.066667 17.066667 17.066667 38.4 4.266667 55.466667l-4.266667 4.266667-256 256c-17.066667 17.066667-42.666667 17.066667-59.733333 0zM85.333333 554.666667c-25.6 0-42.666667-17.066667-42.666666-42.666667s17.066667-42.666667 42.666666-42.666667l341.333334 0c25.6 0 42.666667 17.066667 42.66666599 42.666667s-17.066667 42.666667-42.66666599 42.666667l-341.333334 0z m0 298.666666c-25.6 0-42.666667-17.066667-42.666666-42.666666s17.066667-42.666667 42.666666-42.666667l341.333334 0c25.6 0 42.666667 17.066667 42.66666599 42.666667s-17.066667 42.666667-42.66666599 42.66666599l-341.333334 1e-8z" p-id="1445" fill="#333333"></path></svg>