<?xml version="1.0" standalone="no"?><!DOCTYPE svg PUBLIC "-//W3C//DTD SVG 1.1//EN" "http://www.w3.org/Graphics/SVG/1.1/DTD/svg11.dtd"><svg t="1651376112325" class="icon" viewBox="0 0 1024 1024" version="1.1" xmlns="http://www.w3.org/2000/svg" p-id="1168" xmlns:xlink="http://www.w3.org/1999/xlink" width="200" height="200"><defs><style type="text/css">@font-face { font-family: feedback-iconfont; src: url("//at.alicdn.com/t/font_1031158_u69w8yhxdu.woff2?t=1630033759944") format("woff2"), url("//at.alicdn.com/t/font_1031158_u69w8yhxdu.woff?t=1630033759944") format("woff"), url("//at.alicdn.com/t/font_1031158_u69w8yhxdu.ttf?t=1630033759944") format("truetype"); }
</style></defs><path d="M938.666667 768c25.6 0 42.666667 17.066667 42.666666 42.666667s-17.066667 42.666667-42.666666 42.666666h-341.333334c-25.6 0-42.666667-17.066667-42.666666-42.666666s17.066667-42.666667 42.666666-42.666667h341.333334zM371.2 226.133333c17.066667 17.066667 17.066667 38.4 4.266667 55.466667l-4.266667 4.266667L145.066667 512l226.133333 226.133333c17.066667 17.066667 17.066667 38.4 4.266667 55.466667l-4.266667 4.266667c-17.066667 17.066667-38.4 17.066667-55.466667 4.266666l-4.266666-4.266666-256-256c-17.066667-17.066667-17.066667-38.4-4.266667-55.466667l4.266667-4.266667 256-256c17.066667-17.066667 42.666667-17.066667 59.733333 0zM938.666667 469.333333c25.6 0 42.666667 17.066667 42.666666 42.666667s-17.066667 42.666667-42.666666 42.666667h-341.333334c-25.6 0-42.666667-17.066667-42.666666-42.666667s17.066667-42.666667 42.666666-42.666667h341.333334z m0-298.666666c25.6 0 42.666667 17.066667 42.666666 42.666666s-17.066667 42.666667-42.666666 42.666667h-341.333334c-25.6 0-42.666667-17.066667-42.666666-42.666667s17.066667-42.666667 42.666666-42.666666h341.333334z" p-id="1169" fill="#ffffff"></path></svg>