<?xml version="1.0" standalone="no"?><!DOCTYPE svg PUBLIC "-//W3C//DTD SVG 1.1//EN" "http://www.w3.org/Graphics/SVG/1.1/DTD/svg11.dtd"><svg t="1651291207057" class="icon" viewBox="0 0 1024 1024" version="1.1" xmlns="http://www.w3.org/2000/svg" p-id="5150" xmlns:xlink="http://www.w3.org/1999/xlink" width="200" height="200"><defs><style type="text/css">@font-face { font-family: feedback-iconfont; src: url("//at.alicdn.com/t/font_1031158_u69w8yhxdu.woff2?t=1630033759944") format("woff2"), url("//at.alicdn.com/t/font_1031158_u69w8yhxdu.woff?t=1630033759944") format("woff"), url("//at.alicdn.com/t/font_1031158_u69w8yhxdu.ttf?t=1630033759944") format("truetype"); }
</style></defs><path d="M808.43536 370.238386H215.56464A127.218476 127.218476 0 0 0 88.889833 496.913194V897.053358a126.946642 126.946642 0 0 0 126.674807 126.402973h592.87072A126.946642 126.946642 0 0 0 935.110167 897.053358V496.913194a127.218476 127.218476 0 0 0-126.674807-126.674808z m-244.650916 347.947969v131.295992h-104.384391v-131.567826a105.743563 105.743563 0 1 1 105.199894 0z" p-id="5151" fill="#333333"></path><path d="M790.766127 373.772233h-81.550305v-95.142023a197.079904 197.079904 0 0 0-394.159809 0v95.142023h-81.550306v-95.142023a278.63021 278.63021 0 0 1 557.26042 0z" p-id="5152" fill="#333333"></path></svg>