<?xml version="1.0" standalone="no"?><!DOCTYPE svg PUBLIC "-//W3C//DTD SVG 1.1//EN" "http://www.w3.org/Graphics/SVG/1.1/DTD/svg11.dtd"><svg t="1651290281725" class="icon" viewBox="0 0 1024 1024" version="1.1" xmlns="http://www.w3.org/2000/svg" p-id="1018" xmlns:xlink="http://www.w3.org/1999/xlink" width="200" height="200"><defs><style type="text/css">@font-face { font-family: feedback-iconfont; src: url("//at.alicdn.com/t/font_1031158_u69w8yhxdu.woff2?t=1630033759944") format("woff2"), url("//at.alicdn.com/t/font_1031158_u69w8yhxdu.woff?t=1630033759944") format("woff"), url("//at.alicdn.com/t/font_1031158_u69w8yhxdu.ttf?t=1630033759944") format("truetype"); }
</style></defs><path d="M896 72 127.68 72c-35.328 0-64 30.784-64 68.928L63.68 416.64c0 38.08 28.672 68.928 64 68.928L896 485.568c35.328 0 64-30.848 64-68.928L960 140.928C960 102.784 931.328 72 896 72zM896 416.64 127.68 416.64 127.68 140.928 896 140.928 896 416.64zM832 209.856 575.808 209.856l128 137.792L832 209.856zM896 554.432 127.68 554.432c-35.328 0-64 30.848-64 68.928l0 275.712c0 38.144 28.672 68.928 64 68.928L896 968c35.328 0 64-30.784 64-68.928L960 623.36C960 585.344 931.328 554.432 896 554.432zM896 899.072 127.68 899.072 127.68 623.36 896 623.36 896 899.072zM832 692.288 575.808 692.288l128 137.792L832 692.288z" p-id="1019" fill="#333333"></path></svg>