<?xml version="1.0" standalone="no"?><!DOCTYPE svg PUBLIC "-//W3C//DTD SVG 1.1//EN" "http://www.w3.org/Graphics/SVG/1.1/DTD/svg11.dtd"><svg t="1651290312634" class="icon" viewBox="0 0 1024 1024" version="1.1" xmlns="http://www.w3.org/2000/svg" p-id="2074" xmlns:xlink="http://www.w3.org/1999/xlink" width="200" height="200"><defs><style type="text/css">@font-face { font-family: feedback-iconfont; src: url("//at.alicdn.com/t/font_1031158_u69w8yhxdu.woff2?t=1630033759944") format("woff2"), url("//at.alicdn.com/t/font_1031158_u69w8yhxdu.woff?t=1630033759944") format("woff"), url("//at.alicdn.com/t/font_1031158_u69w8yhxdu.ttf?t=1630033759944") format("truetype"); }
</style></defs><path d="M944.7424 430.8992h-387.072v-44.4416c0-47.3088-38.5024-86.016-86.016-86.016H261.5296c-47.3088 0-86.016 38.5024-86.016 86.016v44.4416h-96.256C36.0448 430.8992 0.6144 466.1248 0.6144 509.5424c0 43.2128 35.2256 78.6432 78.6432 78.6432h96.4608v49.5616c0 47.3088 38.5024 86.016 86.016 86.016h210.3296c47.3088 0 86.016-38.5024 86.016-86.016v-49.5616h387.072c43.2128 0 78.6432-35.2256 78.6432-78.6432-0.4096-43.4176-35.6352-78.6432-79.0528-78.6432zM505.4464 637.5424c0 18.6368-15.1552 33.5872-33.5872 33.5872H261.5296c-18.6368 0-33.5872-15.1552-33.5872-33.5872v-49.5616h0.2048v-157.0816h-0.2048v-44.4416c0-18.6368 15.1552-33.5872 33.5872-33.5872h210.3296c18.6368 0 33.5872 15.1552 33.5872 33.5872v251.0848z" p-id="2075" fill="#333333"></path></svg>