<?xml version="1.0" standalone="no"?><!DOCTYPE svg PUBLIC "-//W3C//DTD SVG 1.1//EN" "http://www.w3.org/Graphics/SVG/1.1/DTD/svg11.dtd"><svg t="1651290324191" class="icon" viewBox="0 0 1024 1024" version="1.1" xmlns="http://www.w3.org/2000/svg" p-id="2482" xmlns:xlink="http://www.w3.org/1999/xlink" width="200" height="200"><defs><style type="text/css">@font-face { font-family: feedback-iconfont; src: url("//at.alicdn.com/t/font_1031158_u69w8yhxdu.woff2?t=1630033759944") format("woff2"), url("//at.alicdn.com/t/font_1031158_u69w8yhxdu.woff?t=1630033759944") format("woff"), url("//at.alicdn.com/t/font_1031158_u69w8yhxdu.ttf?t=1630033759944") format("truetype"); }
</style></defs><path d="M612.6 83.9H948c6.2 0 11.3 5 11.3 11.3V139c0 6.2-5 11.3-11.3 11.3H612.6c-6.2 0-11.3-5-11.3-11.3V95.2c0-6.3 5-11.3 11.3-11.3zM601.3 336.4v-43.9c0-6.2 5-11.3 11.3-11.3H948c6.2 0 11.3 5 11.3 11.3v43.9c0 6.2-5 11.3-11.3 11.3H612.6c-6.3 0-11.3-5.1-11.3-11.3zM601.3 533.8v-43.9c0-6.2 5-11.3 11.3-11.3H948c6.2 0 11.3 5 11.3 11.3v43.9c0 6.2-5 11.3-11.3 11.3H612.6c-6.3 0-11.3-5.1-11.3-11.3zM64 731.2v-43.9c0-6.2 5-11.3 11.3-11.3H948c6.2 0 11.3 5 11.3 11.3v43.9c0 6.2-5 11.3-11.3 11.3H75.3c-6.3 0-11.3-5.1-11.3-11.3zM64 928.6v-43.9c0-6.2 5-11.3 11.3-11.3H948c6.2 0 11.3 5 11.3 11.3v43.9c0 6.2-5 11.3-11.3 11.3H75.3c-6.3 0-11.3-5-11.3-11.3zM64.2 155.3V94.6c0-6.2 5-11.3 11.3-11.3h425c6.2 0 11.3 5 11.3 11.3v61.1c0 6.2-5 11.3-11.3 11.3l-425-0.3c-6.3-0.1-11.3-5.1-11.3-11.4z" p-id="2483" fill="#333333"></path><path d="M243.2 165h89.5v427.5c0 11.3-9.2 20.5-20.5 20.5h-48.6c-11.3 0-20.5-9.2-20.5-20.5V165z" p-id="2484" fill="#333333"></path></svg>