<?xml version="1.0" standalone="no"?><!DOCTYPE svg PUBLIC "-//W3C//DTD SVG 1.1//EN" "http://www.w3.org/Graphics/SVG/1.1/DTD/svg11.dtd"><svg t="1651390347143" class="icon" viewBox="0 0 1024 1024" version="1.1" xmlns="http://www.w3.org/2000/svg" p-id="32077" xmlns:xlink="http://www.w3.org/1999/xlink" width="200" height="200"><defs><style type="text/css">@font-face { font-family: feedback-iconfont; src: url("//at.alicdn.com/t/font_1031158_u69w8yhxdu.woff2?t=1630033759944") format("woff2"), url("//at.alicdn.com/t/font_1031158_u69w8yhxdu.woff?t=1630033759944") format("woff"), url("//at.alicdn.com/t/font_1031158_u69w8yhxdu.ttf?t=1630033759944") format("truetype"); }
</style></defs><path d="M971.733333 417.493333a463.573333 463.573333 0 0 0-27.306666-88.106666 450.56 450.56 0 0 0-42.666667-79.786667 42.666667 42.666667 0 1 0-70.613333 47.786667 400.213333 400.213333 0 0 1 35.413333 64 386.133333 386.133333 0 0 1 21.333333 72.106666 386.346667 386.346667 0 0 1-21.333333 226.773334 393.6 393.6 0 0 1-35.413333 65.28 384 384 0 0 1-103.893334 103.893333 382.72 382.72 0 0 1-429.226666 0A386.773333 386.773333 0 0 1 158.08 661.333333a386.133333 386.133333 0 0 1-21.333333-72.106666 386.346667 386.346667 0 0 1 21.333333-226.56 393.6 393.6 0 0 1 35.413333-65.28 384 384 0 0 1 103.893334-103.893334 382.72 382.72 0 0 1 429.226666 0 42.666667 42.666667 0 1 0 47.786667-70.613333 458.24 458.24 0 0 0-79.786667-42.666667 463.573333 463.573333 0 0 0-88.106666-27.306666 469.333333 469.333333 0 0 0-189.013334 0 463.573333 463.573333 0 0 0-88.106666 27.306666 458.24 458.24 0 0 0-79.786667 42.666667 463.146667 463.146667 0 0 0-126.72 126.72 450.56 450.56 0 0 0-42.666667 79.786667 469.333333 469.333333 0 0 0 0 365.226666 450.56 450.56 0 0 0 42.666667 79.786667 463.146667 463.146667 0 0 0 126.72 126.72 458.24 458.24 0 0 0 79.786667 42.666667 469.333333 469.333333 0 0 0 365.226666 0 458.24 458.24 0 0 0 79.786667-42.666667 463.146667 463.146667 0 0 0 126.72-126.72 450.56 450.56 0 0 0 42.666667-79.786667 469.333333 469.333333 0 0 0 27.306666-277.333333z" fill="#333333" p-id="32078"></path><path d="M512 512V256a42.666667 42.666667 0 0 0-85.333333 0v298.666667a42.666667 42.666667 0 0 0 42.666666 42.666666h298.666667a42.666667 42.666667 0 0 0 0-85.333333z" fill="#333333" p-id="32079"></path></svg>